{
	"patcher" : 	{
		"fileversion" : 1,
		"rect" : [ 712.0, 546.0, 640.0, 506.0 ],
		"bglocked" : 0,
		"defrect" : [ 712.0, 546.0, 640.0, 506.0 ],
		"openrect" : [ 0.0, 0.0, 0.0, 0.0 ],
		"openinpresentation" : 0,
		"default_fontsize" : 12.0,
		"default_fontface" : 0,
		"default_fontname" : "Arial",
		"gridonopen" : 0,
		"gridsize" : [ 15.0, 15.0 ],
		"gridsnaponopen" : 0,
		"toolbarvisible" : 1,
		"boxanimatetime" : 200,
		"imprint" : 0,
		"metadata" : [  ],
		"boxes" : [ 			{
				"box" : 				{
					"maxclass" : "newobj",
					"text" : "r printDebug",
					"fontname" : "Arial",
					"numinlets" : 0,
					"patching_rect" : [ 21.0, 12.0, 78.0, 20.0 ],
					"fontsize" : 12.0,
					"numoutlets" : 1,
					"id" : "obj-16",
					"outlettype" : [ "" ]
				}

			}
, 			{
				"box" : 				{
					"maxclass" : "toggle",
					"numinlets" : 1,
					"patching_rect" : [ 21.0, 36.0, 20.0, 20.0 ],
					"numoutlets" : 1,
					"id" : "obj-18",
					"outlettype" : [ "int" ]
				}

			}
, 			{
				"box" : 				{
					"maxclass" : "newobj",
					"varname" : "chanStrip_print_msgIn_gate",
					"text" : "gate",
					"fontname" : "Arial",
					"numinlets" : 2,
					"patching_rect" : [ 21.0, 65.0, 35.0, 20.0 ],
					"fontsize" : 12.0,
					"numoutlets" : 1,
					"id" : "obj-20",
					"outlettype" : [ "" ]
				}

			}
, 			{
				"box" : 				{
					"maxclass" : "comment",
					"text" : "input list will grow with deleopment",
					"fontname" : "Arial",
					"numinlets" : 1,
					"patching_rect" : [ 261.0, 35.0, 195.0, 20.0 ],
					"fontsize" : 12.0,
					"numoutlets" : 0,
					"id" : "obj-15"
				}

			}
, 			{
				"box" : 				{
					"maxclass" : "comment",
					"text" : "posX, posY, distance",
					"fontname" : "Arial",
					"numinlets" : 1,
					"patching_rect" : [ 450.0, 166.0, 123.0, 20.0 ],
					"fontsize" : 12.0,
					"numoutlets" : 0,
					"id" : "obj-7"
				}

			}
, 			{
				"box" : 				{
					"maxclass" : "comment",
					"text" : "note, amp",
					"fontname" : "Arial",
					"numinlets" : 1,
					"patching_rect" : [ 206.0, 116.0, 64.0, 20.0 ],
					"fontsize" : 12.0,
					"numoutlets" : 0,
					"id" : "obj-6"
				}

			}
, 			{
				"box" : 				{
					"maxclass" : "comment",
					"text" : "class, note, amp, posX, posY, distance",
					"fontname" : "Arial",
					"numinlets" : 1,
					"patching_rect" : [ 450.0, 63.0, 231.0, 20.0 ],
					"fontsize" : 12.0,
					"numoutlets" : 0,
					"id" : "obj-19"
				}

			}
, 			{
				"box" : 				{
					"maxclass" : "newobj",
					"text" : "pack 0. 0. 0.",
					"fontname" : "Arial",
					"numinlets" : 3,
					"patching_rect" : [ 350.0, 166.0, 99.0, 20.0 ],
					"fontsize" : 12.0,
					"numoutlets" : 1,
					"id" : "obj-17",
					"outlettype" : [ "" ]
				}

			}
, 			{
				"box" : 				{
					"maxclass" : "newobj",
					"text" : "pack 0 0.",
					"fontname" : "Arial",
					"numinlets" : 2,
					"patching_rect" : [ 271.0, 115.0, 59.0, 20.0 ],
					"fontsize" : 12.0,
					"numoutlets" : 1,
					"id" : "obj-14",
					"outlettype" : [ "" ]
				}

			}
, 			{
				"box" : 				{
					"maxclass" : "newobj",
					"text" : "unpack a 0 0. 0. 0. 0.",
					"fontname" : "Arial",
					"numinlets" : 1,
					"patching_rect" : [ 232.0, 64.0, 216.0, 20.0 ],
					"fontsize" : 12.0,
					"numoutlets" : 6,
					"id" : "obj-12",
					"outlettype" : [ "", "int", "float", "float", "float", "float" ]
				}

			}
, 			{
				"box" : 				{
					"maxclass" : "outlet",
					"numinlets" : 1,
					"patching_rect" : [ 454.0, 254.0, 25.0, 25.0 ],
					"numoutlets" : 0,
					"id" : "obj-10",
					"comment" : ""
				}

			}
, 			{
				"box" : 				{
					"maxclass" : "outlet",
					"numinlets" : 1,
					"patching_rect" : [ 417.0, 254.0, 25.0, 25.0 ],
					"numoutlets" : 0,
					"id" : "obj-11",
					"comment" : ""
				}

			}
, 			{
				"box" : 				{
					"maxclass" : "outlet",
					"numinlets" : 1,
					"patching_rect" : [ 381.0, 254.0, 25.0, 25.0 ],
					"numoutlets" : 0,
					"id" : "obj-1",
					"comment" : ""
				}

			}
, 			{
				"box" : 				{
					"maxclass" : "outlet",
					"numinlets" : 1,
					"patching_rect" : [ 344.0, 254.0, 25.0, 25.0 ],
					"numoutlets" : 0,
					"id" : "obj-8",
					"comment" : ""
				}

			}
, 			{
				"box" : 				{
					"maxclass" : "newobj",
					"text" : "spatializer",
					"fontname" : "Arial",
					"numinlets" : 2,
					"patching_rect" : [ 271.0, 201.0, 202.0, 20.0 ],
					"fontsize" : 12.0,
					"numoutlets" : 6,
					"id" : "obj-13",
					"outlettype" : [ "signal", "signal", "", "", "", "" ]
				}

			}
, 			{
				"box" : 				{
					"maxclass" : "newobj",
					"text" : "inserts",
					"fontname" : "Arial",
					"numinlets" : 2,
					"patching_rect" : [ 271.0, 166.0, 74.0, 20.0 ],
					"fontsize" : 12.0,
					"numoutlets" : 1,
					"id" : "obj-9",
					"outlettype" : [ "" ]
				}

			}
, 			{
				"box" : 				{
					"maxclass" : "newobj",
					"text" : "instrument",
					"fontname" : "Arial",
					"numinlets" : 1,
					"patching_rect" : [ 271.0, 140.0, 74.0, 20.0 ],
					"fontsize" : 12.0,
					"numoutlets" : 1,
					"id" : "obj-5",
					"outlettype" : [ "" ]
				}

			}
, 			{
				"box" : 				{
					"maxclass" : "outlet",
					"numinlets" : 1,
					"patching_rect" : [ 308.0, 254.0, 25.0, 25.0 ],
					"numoutlets" : 0,
					"id" : "obj-4",
					"comment" : ""
				}

			}
, 			{
				"box" : 				{
					"maxclass" : "inlet",
					"numinlets" : 0,
					"patching_rect" : [ 232.0, 32.0, 25.0, 25.0 ],
					"numoutlets" : 1,
					"id" : "obj-3",
					"outlettype" : [ "" ],
					"comment" : "(char) player class (unimplemented)"
				}

			}
, 			{
				"box" : 				{
					"maxclass" : "outlet",
					"numinlets" : 1,
					"patching_rect" : [ 271.0, 254.0, 25.0, 25.0 ],
					"numoutlets" : 0,
					"id" : "obj-2",
					"comment" : ""
				}

			}
 ],
		"lines" : [ 			{
				"patchline" : 				{
					"source" : [ "obj-3", 0 ],
					"destination" : [ "obj-20", 1 ],
					"hidden" : 0,
					"midpoints" : [ 241.5, 60.0, 46.5, 60.0 ]
				}

			}
, 			{
				"patchline" : 				{
					"source" : [ "obj-18", 0 ],
					"destination" : [ "obj-20", 0 ],
					"hidden" : 0,
					"midpoints" : [  ]
				}

			}
, 			{
				"patchline" : 				{
					"source" : [ "obj-16", 0 ],
					"destination" : [ "obj-18", 0 ],
					"hidden" : 0,
					"midpoints" : [  ]
				}

			}
, 			{
				"patchline" : 				{
					"source" : [ "obj-3", 0 ],
					"destination" : [ "obj-12", 0 ],
					"hidden" : 0,
					"midpoints" : [  ]
				}

			}
, 			{
				"patchline" : 				{
					"source" : [ "obj-12", 2 ],
					"destination" : [ "obj-14", 1 ],
					"hidden" : 0,
					"midpoints" : [  ]
				}

			}
, 			{
				"patchline" : 				{
					"source" : [ "obj-12", 1 ],
					"destination" : [ "obj-14", 0 ],
					"hidden" : 0,
					"midpoints" : [  ]
				}

			}
, 			{
				"patchline" : 				{
					"source" : [ "obj-12", 3 ],
					"destination" : [ "obj-17", 0 ],
					"hidden" : 0,
					"midpoints" : [  ]
				}

			}
, 			{
				"patchline" : 				{
					"source" : [ "obj-12", 4 ],
					"destination" : [ "obj-17", 1 ],
					"hidden" : 0,
					"midpoints" : [  ]
				}

			}
, 			{
				"patchline" : 				{
					"source" : [ "obj-12", 5 ],
					"destination" : [ "obj-17", 2 ],
					"hidden" : 0,
					"midpoints" : [  ]
				}

			}
, 			{
				"patchline" : 				{
					"source" : [ "obj-14", 0 ],
					"destination" : [ "obj-5", 0 ],
					"hidden" : 0,
					"midpoints" : [  ]
				}

			}
, 			{
				"patchline" : 				{
					"source" : [ "obj-5", 0 ],
					"destination" : [ "obj-9", 0 ],
					"hidden" : 0,
					"midpoints" : [  ]
				}

			}
, 			{
				"patchline" : 				{
					"source" : [ "obj-17", 0 ],
					"destination" : [ "obj-13", 1 ],
					"hidden" : 0,
					"midpoints" : [ 359.5, 192.0, 463.5, 192.0 ]
				}

			}
, 			{
				"patchline" : 				{
					"source" : [ "obj-9", 0 ],
					"destination" : [ "obj-13", 0 ],
					"hidden" : 0,
					"midpoints" : [  ]
				}

			}
, 			{
				"patchline" : 				{
					"source" : [ "obj-13", 1 ],
					"destination" : [ "obj-4", 0 ],
					"hidden" : 0,
					"midpoints" : [  ]
				}

			}
, 			{
				"patchline" : 				{
					"source" : [ "obj-13", 0 ],
					"destination" : [ "obj-2", 0 ],
					"hidden" : 0,
					"midpoints" : [  ]
				}

			}
, 			{
				"patchline" : 				{
					"source" : [ "obj-13", 2 ],
					"destination" : [ "obj-8", 0 ],
					"hidden" : 0,
					"midpoints" : [  ]
				}

			}
, 			{
				"patchline" : 				{
					"source" : [ "obj-13", 3 ],
					"destination" : [ "obj-1", 0 ],
					"hidden" : 0,
					"midpoints" : [  ]
				}

			}
, 			{
				"patchline" : 				{
					"source" : [ "obj-13", 4 ],
					"destination" : [ "obj-11", 0 ],
					"hidden" : 0,
					"midpoints" : [  ]
				}

			}
, 			{
				"patchline" : 				{
					"source" : [ "obj-13", 5 ],
					"destination" : [ "obj-10", 0 ],
					"hidden" : 0,
					"midpoints" : [  ]
				}

			}
 ]
	}

}
