{
	"patcher" : 	{
		"fileversion" : 1,
		"rect" : [ 965.0, 256.0, 640.0, 506.0 ],
		"bglocked" : 0,
		"defrect" : [ 965.0, 256.0, 640.0, 506.0 ],
		"openrect" : [ 0.0, 0.0, 0.0, 0.0 ],
		"openinpresentation" : 0,
		"default_fontsize" : 12.0,
		"default_fontface" : 0,
		"default_fontname" : "Arial",
		"gridonopen" : 0,
		"gridsize" : [ 15.0, 15.0 ],
		"gridsnaponopen" : 0,
		"toolbarvisible" : 1,
		"boxanimatetime" : 200,
		"imprint" : 0,
		"metadata" : [  ],
		"boxes" : [ 			{
				"box" : 				{
					"maxclass" : "meter~",
					"numinlets" : 1,
					"patching_rect" : [ 250.0, 361.0, 12.0, 94.0 ],
					"numoutlets" : 1,
					"outlettype" : [ "float" ],
					"id" : "obj-11"
				}

			}
, 			{
				"box" : 				{
					"maxclass" : "message",
					"text" : "0, 1 50 0 50",
					"numinlets" : 2,
					"patching_rect" : [ 398.0, 287.0, 74.0, 18.0 ],
					"fontsize" : 12.0,
					"numoutlets" : 1,
					"outlettype" : [ "" ],
					"fontname" : "Arial",
					"id" : "obj-31"
				}

			}
, 			{
				"box" : 				{
					"maxclass" : "number~",
					"numinlets" : 2,
					"sig" : 0.0,
					"mode" : 2,
					"patching_rect" : [ 393.0, 388.0, 56.0, 20.0 ],
					"fontsize" : 12.0,
					"numoutlets" : 2,
					"outlettype" : [ "signal", "float" ],
					"fontname" : "Arial",
					"id" : "obj-30"
				}

			}
, 			{
				"box" : 				{
					"maxclass" : "newobj",
					"text" : "line~ 0.",
					"numinlets" : 2,
					"patching_rect" : [ 398.0, 310.0, 50.0, 20.0 ],
					"fontsize" : 12.0,
					"numoutlets" : 2,
					"outlettype" : [ "signal", "bang" ],
					"fontname" : "Arial",
					"id" : "obj-26"
				}

			}
, 			{
				"box" : 				{
					"maxclass" : "button",
					"numinlets" : 1,
					"patching_rect" : [ 401.0, 225.0, 20.0, 20.0 ],
					"numoutlets" : 1,
					"outlettype" : [ "bang" ],
					"id" : "obj-25"
				}

			}
, 			{
				"box" : 				{
					"maxclass" : "toggle",
					"numinlets" : 1,
					"patching_rect" : [ 399.0, 146.0, 20.0, 20.0 ],
					"numoutlets" : 1,
					"outlettype" : [ "int" ],
					"id" : "obj-21"
				}

			}
, 			{
				"box" : 				{
					"maxclass" : "newobj",
					"text" : "metro 1000",
					"numinlets" : 2,
					"patching_rect" : [ 399.0, 173.0, 71.0, 20.0 ],
					"fontsize" : 12.0,
					"numoutlets" : 1,
					"outlettype" : [ "bang" ],
					"fontname" : "Arial",
					"id" : "obj-17"
				}

			}
, 			{
				"box" : 				{
					"maxclass" : "newobj",
					"text" : "*~ 0.",
					"numinlets" : 2,
					"patching_rect" : [ 282.0, 337.0, 36.0, 20.0 ],
					"fontsize" : 12.0,
					"numoutlets" : 1,
					"outlettype" : [ "signal" ],
					"fontname" : "Arial",
					"id" : "obj-12"
				}

			}
, 			{
				"box" : 				{
					"maxclass" : "newobj",
					"text" : "+ 200",
					"numinlets" : 2,
					"patching_rect" : [ 280.0, 177.0, 41.0, 20.0 ],
					"fontsize" : 12.0,
					"numoutlets" : 1,
					"outlettype" : [ "int" ],
					"fontname" : "Arial",
					"id" : "obj-9"
				}

			}
, 			{
				"box" : 				{
					"maxclass" : "newobj",
					"text" : "loadbang",
					"numinlets" : 1,
					"patching_rect" : [ 280.0, 129.0, 60.0, 20.0 ],
					"fontsize" : 12.0,
					"numoutlets" : 1,
					"outlettype" : [ "bang" ],
					"fontname" : "Arial",
					"id" : "obj-8"
				}

			}
, 			{
				"box" : 				{
					"maxclass" : "newobj",
					"text" : "random 800",
					"numinlets" : 2,
					"patching_rect" : [ 280.0, 153.0, 75.0, 20.0 ],
					"fontsize" : 12.0,
					"numoutlets" : 1,
					"outlettype" : [ "int" ],
					"fontname" : "Arial",
					"id" : "obj-7"
				}

			}
, 			{
				"box" : 				{
					"maxclass" : "flonum",
					"numinlets" : 1,
					"patching_rect" : [ 281.0, 201.0, 50.0, 20.0 ],
					"fontsize" : 12.0,
					"numoutlets" : 2,
					"outlettype" : [ "float", "bang" ],
					"fontname" : "Arial",
					"id" : "obj-10"
				}

			}
, 			{
				"box" : 				{
					"maxclass" : "newobj",
					"text" : "saw~ 400",
					"numinlets" : 2,
					"patching_rect" : [ 281.0, 232.0, 62.0, 20.0 ],
					"fontsize" : 12.0,
					"numoutlets" : 1,
					"outlettype" : [ "signal" ],
					"fontname" : "Arial",
					"id" : "obj-4"
				}

			}
, 			{
				"box" : 				{
					"maxclass" : "newobj",
					"text" : "r printDebug",
					"numinlets" : 0,
					"patching_rect" : [ 36.0, 27.0, 78.0, 20.0 ],
					"fontsize" : 12.0,
					"numoutlets" : 1,
					"outlettype" : [ "" ],
					"fontname" : "Arial",
					"id" : "obj-16"
				}

			}
, 			{
				"box" : 				{
					"maxclass" : "toggle",
					"numinlets" : 1,
					"patching_rect" : [ 36.0, 51.0, 20.0, 20.0 ],
					"numoutlets" : 1,
					"outlettype" : [ "int" ],
					"id" : "obj-18"
				}

			}
, 			{
				"box" : 				{
					"maxclass" : "newobj",
					"varname" : "inst_print_msgIn_gate",
					"text" : "gate",
					"numinlets" : 2,
					"patching_rect" : [ 36.0, 80.0, 35.0, 20.0 ],
					"fontsize" : 12.0,
					"numoutlets" : 1,
					"outlettype" : [ "" ],
					"fontname" : "Arial",
					"id" : "obj-20"
				}

			}
, 			{
				"box" : 				{
					"maxclass" : "comment",
					"text" : "input list will grow with deleopment",
					"numinlets" : 1,
					"patching_rect" : [ 315.0, 44.0, 195.0, 20.0 ],
					"fontsize" : 12.0,
					"numoutlets" : 0,
					"fontname" : "Arial",
					"id" : "obj-3"
				}

			}
, 			{
				"box" : 				{
					"maxclass" : "comment",
					"text" : "note, amp",
					"numinlets" : 1,
					"patching_rect" : [ 358.0, 73.0, 64.0, 20.0 ],
					"fontsize" : 12.0,
					"numoutlets" : 0,
					"fontname" : "Arial",
					"id" : "obj-6"
				}

			}
, 			{
				"box" : 				{
					"maxclass" : "newobj",
					"text" : "unpack 0 0.",
					"numinlets" : 1,
					"patching_rect" : [ 283.0, 73.0, 73.0, 20.0 ],
					"fontsize" : 12.0,
					"numoutlets" : 2,
					"outlettype" : [ "int", "float" ],
					"fontname" : "Arial",
					"id" : "obj-1"
				}

			}
, 			{
				"box" : 				{
					"maxclass" : "inlet",
					"numinlets" : 0,
					"patching_rect" : [ 283.0, 41.0, 25.0, 25.0 ],
					"numoutlets" : 1,
					"outlettype" : [ "" ],
					"id" : "obj-5",
					"comment" : "(list) pitch and amplitude"
				}

			}
, 			{
				"box" : 				{
					"maxclass" : "outlet",
					"numinlets" : 1,
					"patching_rect" : [ 281.0, 368.0, 25.0, 25.0 ],
					"numoutlets" : 0,
					"id" : "obj-2",
					"comment" : ""
				}

			}
 ],
		"lines" : [ 			{
				"patchline" : 				{
					"source" : [ "obj-12", 0 ],
					"destination" : [ "obj-11", 0 ],
					"hidden" : 0,
					"midpoints" : [  ]
				}

			}
, 			{
				"patchline" : 				{
					"source" : [ "obj-26", 0 ],
					"destination" : [ "obj-12", 1 ],
					"hidden" : 0,
					"midpoints" : [  ]
				}

			}
, 			{
				"patchline" : 				{
					"source" : [ "obj-25", 0 ],
					"destination" : [ "obj-31", 0 ],
					"hidden" : 0,
					"midpoints" : [  ]
				}

			}
, 			{
				"patchline" : 				{
					"source" : [ "obj-8", 0 ],
					"destination" : [ "obj-21", 0 ],
					"hidden" : 0,
					"midpoints" : [  ]
				}

			}
, 			{
				"patchline" : 				{
					"source" : [ "obj-31", 0 ],
					"destination" : [ "obj-26", 0 ],
					"hidden" : 0,
					"midpoints" : [  ]
				}

			}
, 			{
				"patchline" : 				{
					"source" : [ "obj-26", 0 ],
					"destination" : [ "obj-30", 0 ],
					"hidden" : 0,
					"midpoints" : [  ]
				}

			}
, 			{
				"patchline" : 				{
					"source" : [ "obj-17", 0 ],
					"destination" : [ "obj-25", 0 ],
					"hidden" : 0,
					"midpoints" : [  ]
				}

			}
, 			{
				"patchline" : 				{
					"source" : [ "obj-21", 0 ],
					"destination" : [ "obj-17", 0 ],
					"hidden" : 0,
					"midpoints" : [  ]
				}

			}
, 			{
				"patchline" : 				{
					"source" : [ "obj-12", 0 ],
					"destination" : [ "obj-2", 0 ],
					"hidden" : 0,
					"midpoints" : [  ]
				}

			}
, 			{
				"patchline" : 				{
					"source" : [ "obj-9", 0 ],
					"destination" : [ "obj-10", 0 ],
					"hidden" : 0,
					"midpoints" : [  ]
				}

			}
, 			{
				"patchline" : 				{
					"source" : [ "obj-5", 0 ],
					"destination" : [ "obj-20", 1 ],
					"hidden" : 0,
					"midpoints" : [ 292.5, 70.0, 61.5, 70.0 ]
				}

			}
, 			{
				"patchline" : 				{
					"source" : [ "obj-16", 0 ],
					"destination" : [ "obj-18", 0 ],
					"hidden" : 0,
					"midpoints" : [  ]
				}

			}
, 			{
				"patchline" : 				{
					"source" : [ "obj-18", 0 ],
					"destination" : [ "obj-20", 0 ],
					"hidden" : 0,
					"midpoints" : [  ]
				}

			}
, 			{
				"patchline" : 				{
					"source" : [ "obj-5", 0 ],
					"destination" : [ "obj-1", 0 ],
					"hidden" : 0,
					"midpoints" : [  ]
				}

			}
, 			{
				"patchline" : 				{
					"source" : [ "obj-8", 0 ],
					"destination" : [ "obj-7", 0 ],
					"hidden" : 0,
					"midpoints" : [  ]
				}

			}
, 			{
				"patchline" : 				{
					"source" : [ "obj-7", 0 ],
					"destination" : [ "obj-9", 0 ],
					"hidden" : 0,
					"midpoints" : [  ]
				}

			}
, 			{
				"patchline" : 				{
					"source" : [ "obj-10", 0 ],
					"destination" : [ "obj-4", 0 ],
					"hidden" : 0,
					"midpoints" : [  ]
				}

			}
, 			{
				"patchline" : 				{
					"source" : [ "obj-4", 0 ],
					"destination" : [ "obj-12", 0 ],
					"hidden" : 0,
					"midpoints" : [  ]
				}

			}
 ]
	}

}
