{
	"patcher" : 	{
		"fileversion" : 1,
		"rect" : [ 319.0, 311.0, 640.0, 506.0 ],
		"bglocked" : 0,
		"defrect" : [ 319.0, 311.0, 640.0, 506.0 ],
		"openrect" : [ 0.0, 0.0, 0.0, 0.0 ],
		"openinpresentation" : 0,
		"default_fontsize" : 12.0,
		"default_fontface" : 0,
		"default_fontname" : "Arial",
		"gridonopen" : 0,
		"gridsize" : [ 15.0, 15.0 ],
		"gridsnaponopen" : 0,
		"toolbarvisible" : 1,
		"boxanimatetime" : 200,
		"imprint" : 0,
		"metadata" : [  ],
		"boxes" : [ 			{
				"box" : 				{
					"maxclass" : "newobj",
					"text" : "r printDebug",
					"fontname" : "Arial",
					"numinlets" : 0,
					"patching_rect" : [ 33.0, 32.0, 78.0, 20.0 ],
					"fontsize" : 12.0,
					"numoutlets" : 1,
					"id" : "obj-9",
					"outlettype" : [ "" ]
				}

			}
, 			{
				"box" : 				{
					"maxclass" : "toggle",
					"numinlets" : 1,
					"patching_rect" : [ 33.0, 56.0, 20.0, 20.0 ],
					"numoutlets" : 1,
					"id" : "obj-8",
					"outlettype" : [ "int" ]
				}

			}
, 			{
				"box" : 				{
					"maxclass" : "newobj",
					"varname" : "patternPlayer_print_msgIn_gate",
					"text" : "gate",
					"fontname" : "Arial",
					"numinlets" : 2,
					"patching_rect" : [ 33.0, 85.0, 35.0, 20.0 ],
					"fontsize" : 12.0,
					"numoutlets" : 1,
					"id" : "obj-4",
					"outlettype" : [ "" ]
				}

			}
, 			{
				"box" : 				{
					"maxclass" : "comment",
					"text" : "note, amp",
					"fontname" : "Arial",
					"numinlets" : 1,
					"patching_rect" : [ 310.0, 282.0, 64.0, 20.0 ],
					"fontsize" : 12.0,
					"numoutlets" : 0,
					"id" : "obj-5"
				}

			}
, 			{
				"box" : 				{
					"maxclass" : "comment",
					"text" : "pattern number",
					"fontname" : "Arial",
					"numinlets" : 1,
					"patching_rect" : [ 276.0, 54.0, 92.0, 20.0 ],
					"fontsize" : 12.0,
					"numoutlets" : 0,
					"id" : "obj-59"
				}

			}
, 			{
				"box" : 				{
					"maxclass" : "newobj",
					"text" : "pack a 0.",
					"fontname" : "Arial",
					"numinlets" : 2,
					"patching_rect" : [ 247.0, 284.0, 59.0, 20.0 ],
					"fontsize" : 12.0,
					"numoutlets" : 1,
					"id" : "obj-3",
					"outlettype" : [ "" ]
				}

			}
, 			{
				"box" : 				{
					"maxclass" : "outlet",
					"numinlets" : 1,
					"patching_rect" : [ 247.0, 308.0, 25.0, 25.0 ],
					"numoutlets" : 0,
					"id" : "obj-2",
					"comment" : ""
				}

			}
, 			{
				"box" : 				{
					"maxclass" : "inlet",
					"numinlets" : 0,
					"patching_rect" : [ 245.0, 53.0, 25.0, 25.0 ],
					"numoutlets" : 1,
					"id" : "obj-1",
					"outlettype" : [ "" ],
					"comment" : ""
				}

			}
 ],
		"lines" : [ 			{
				"patchline" : 				{
					"source" : [ "obj-1", 0 ],
					"destination" : [ "obj-4", 1 ],
					"hidden" : 0,
					"midpoints" : [ 254.5, 81.0, 58.5, 81.0 ]
				}

			}
, 			{
				"patchline" : 				{
					"source" : [ "obj-8", 0 ],
					"destination" : [ "obj-4", 0 ],
					"hidden" : 0,
					"midpoints" : [  ]
				}

			}
, 			{
				"patchline" : 				{
					"source" : [ "obj-9", 0 ],
					"destination" : [ "obj-8", 0 ],
					"hidden" : 0,
					"midpoints" : [  ]
				}

			}
, 			{
				"patchline" : 				{
					"source" : [ "obj-3", 0 ],
					"destination" : [ "obj-2", 0 ],
					"hidden" : 0,
					"midpoints" : [  ]
				}

			}
 ]
	}

}
