{
	"patcher" : 	{
		"fileversion" : 1,
		"rect" : [ 94.0, 500.0, 640.0, 506.0 ],
		"bglocked" : 0,
		"defrect" : [ 94.0, 500.0, 640.0, 506.0 ],
		"openrect" : [ 0.0, 0.0, 0.0, 0.0 ],
		"openinpresentation" : 0,
		"default_fontsize" : 12.0,
		"default_fontface" : 0,
		"default_fontname" : "Arial",
		"gridonopen" : 0,
		"gridsize" : [ 15.0, 15.0 ],
		"gridsnaponopen" : 0,
		"toolbarvisible" : 1,
		"boxanimatetime" : 200,
		"imprint" : 0,
		"metadata" : [  ],
		"boxes" : [ 			{
				"box" : 				{
					"maxclass" : "newobj",
					"text" : "r printDebug",
					"fontname" : "Arial",
					"numinlets" : 0,
					"patching_rect" : [ 20.0, 14.0, 78.0, 20.0 ],
					"fontsize" : 12.0,
					"numoutlets" : 1,
					"id" : "obj-9",
					"outlettype" : [ "" ]
				}

			}
, 			{
				"box" : 				{
					"maxclass" : "toggle",
					"numinlets" : 1,
					"patching_rect" : [ 20.0, 38.0, 20.0, 20.0 ],
					"numoutlets" : 1,
					"id" : "obj-8",
					"outlettype" : [ "int" ]
				}

			}
, 			{
				"box" : 				{
					"maxclass" : "newobj",
					"varname" : "patternModifier_print_msgIn_gate",
					"text" : "gate",
					"fontname" : "Arial",
					"numinlets" : 2,
					"patching_rect" : [ 20.0, 67.0, 35.0, 20.0 ],
					"fontsize" : 12.0,
					"numoutlets" : 1,
					"id" : "obj-5",
					"outlettype" : [ "" ]
				}

			}
, 			{
				"box" : 				{
					"maxclass" : "comment",
					"text" : "note, amp",
					"fontname" : "Arial",
					"numinlets" : 1,
					"patching_rect" : [ 343.0, 159.0, 64.0, 20.0 ],
					"fontsize" : 12.0,
					"numoutlets" : 0,
					"id" : "obj-7"
				}

			}
, 			{
				"box" : 				{
					"maxclass" : "comment",
					"text" : "note, amp",
					"fontname" : "Arial",
					"numinlets" : 1,
					"patching_rect" : [ 341.0, 72.0, 64.0, 20.0 ],
					"fontsize" : 12.0,
					"numoutlets" : 0,
					"id" : "obj-6"
				}

			}
, 			{
				"box" : 				{
					"maxclass" : "newobj",
					"text" : "pack a 0.",
					"fontname" : "Arial",
					"numinlets" : 2,
					"patching_rect" : [ 265.0, 159.0, 73.0, 20.0 ],
					"fontsize" : 12.0,
					"numoutlets" : 1,
					"id" : "obj-4",
					"outlettype" : [ "" ]
				}

			}
, 			{
				"box" : 				{
					"maxclass" : "newobj",
					"text" : "unpack a 0.",
					"fontname" : "Arial",
					"numinlets" : 1,
					"patching_rect" : [ 265.0, 73.0, 73.0, 20.0 ],
					"fontsize" : 12.0,
					"numoutlets" : 2,
					"id" : "obj-3",
					"outlettype" : [ "", "float" ]
				}

			}
, 			{
				"box" : 				{
					"maxclass" : "outlet",
					"numinlets" : 1,
					"patching_rect" : [ 265.0, 186.0, 25.0, 25.0 ],
					"numoutlets" : 0,
					"id" : "obj-2",
					"comment" : ""
				}

			}
, 			{
				"box" : 				{
					"maxclass" : "inlet",
					"numinlets" : 0,
					"patching_rect" : [ 265.0, 36.0, 25.0, 25.0 ],
					"numoutlets" : 1,
					"id" : "obj-1",
					"outlettype" : [ "" ],
					"comment" : ""
				}

			}
 ],
		"lines" : [ 			{
				"patchline" : 				{
					"source" : [ "obj-1", 0 ],
					"destination" : [ "obj-3", 0 ],
					"hidden" : 0,
					"midpoints" : [  ]
				}

			}
, 			{
				"patchline" : 				{
					"source" : [ "obj-4", 0 ],
					"destination" : [ "obj-2", 0 ],
					"hidden" : 0,
					"midpoints" : [  ]
				}

			}
, 			{
				"patchline" : 				{
					"source" : [ "obj-3", 1 ],
					"destination" : [ "obj-4", 1 ],
					"hidden" : 0,
					"midpoints" : [  ]
				}

			}
, 			{
				"patchline" : 				{
					"source" : [ "obj-3", 0 ],
					"destination" : [ "obj-4", 0 ],
					"hidden" : 0,
					"midpoints" : [  ]
				}

			}
, 			{
				"patchline" : 				{
					"source" : [ "obj-9", 0 ],
					"destination" : [ "obj-8", 0 ],
					"hidden" : 0,
					"midpoints" : [  ]
				}

			}
, 			{
				"patchline" : 				{
					"source" : [ "obj-8", 0 ],
					"destination" : [ "obj-5", 0 ],
					"hidden" : 0,
					"midpoints" : [  ]
				}

			}
, 			{
				"patchline" : 				{
					"source" : [ "obj-1", 0 ],
					"destination" : [ "obj-5", 1 ],
					"hidden" : 0,
					"midpoints" : [ 274.5, 64.0, 45.5, 64.0 ]
				}

			}
 ]
	}

}
