{
	"patcher" : 	{
		"fileversion" : 1,
		"rect" : [ 923.0, 441.0, 640.0, 480.0 ],
		"bglocked" : 0,
		"defrect" : [ 923.0, 441.0, 640.0, 480.0 ],
		"openrect" : [ 0.0, 0.0, 0.0, 0.0 ],
		"openinpresentation" : 0,
		"default_fontsize" : 12.0,
		"default_fontface" : 0,
		"default_fontname" : "Arial",
		"gridonopen" : 0,
		"gridsize" : [ 15.0, 15.0 ],
		"gridsnaponopen" : 0,
		"toolbarvisible" : 1,
		"boxanimatetime" : 200,
		"imprint" : 0,
		"metadata" : [  ],
		"boxes" : [ 			{
				"box" : 				{
					"maxclass" : "outlet",
					"patching_rect" : [ 194.0, 293.0, 25.0, 25.0 ],
					"numinlets" : 1,
					"id" : "obj-2",
					"numoutlets" : 0,
					"comment" : ""
				}

			}
, 			{
				"box" : 				{
					"maxclass" : "outlet",
					"patching_rect" : [ 158.0, 293.0, 25.0, 25.0 ],
					"numinlets" : 1,
					"id" : "obj-5",
					"numoutlets" : 0,
					"comment" : ""
				}

			}
, 			{
				"box" : 				{
					"maxclass" : "outlet",
					"patching_rect" : [ 122.0, 293.0, 25.0, 25.0 ],
					"numinlets" : 1,
					"id" : "obj-22",
					"numoutlets" : 0,
					"comment" : ""
				}

			}
, 			{
				"box" : 				{
					"maxclass" : "outlet",
					"patching_rect" : [ 86.0, 293.0, 25.0, 25.0 ],
					"numinlets" : 1,
					"id" : "obj-21",
					"numoutlets" : 0,
					"comment" : ""
				}

			}
, 			{
				"box" : 				{
					"maxclass" : "message",
					"text" : "compile",
					"fontsize" : 12.0,
					"patching_rect" : [ 93.0, 223.0, 54.0, 18.0 ],
					"numinlets" : 2,
					"id" : "obj-19",
					"fontname" : "Arial",
					"numoutlets" : 1,
					"outlettype" : [ "" ]
				}

			}
, 			{
				"box" : 				{
					"maxclass" : "message",
					"text" : "open",
					"fontsize" : 12.0,
					"patching_rect" : [ 66.0, 203.0, 39.0, 18.0 ],
					"numinlets" : 2,
					"id" : "obj-32",
					"fontname" : "Arial",
					"numoutlets" : 1,
					"outlettype" : [ "" ]
				}

			}
, 			{
				"box" : 				{
					"maxclass" : "newobj",
					"text" : "js oscParser.js",
					"fontsize" : 12.0,
					"patching_rect" : [ 50.0, 263.0, 163.0, 20.0 ],
					"numinlets" : 1,
					"id" : "obj-29",
					"fontname" : "Arial",
					"numoutlets" : 5,
					"outlettype" : [ "", "", "", "", "" ]
				}

			}
, 			{
				"box" : 				{
					"maxclass" : "newobj",
					"text" : "r printDebug",
					"fontsize" : 12.0,
					"patching_rect" : [ 169.0, 118.0, 78.0, 20.0 ],
					"numinlets" : 0,
					"id" : "obj-9",
					"fontname" : "Arial",
					"numoutlets" : 1,
					"outlettype" : [ "" ]
				}

			}
, 			{
				"box" : 				{
					"maxclass" : "inlet",
					"patching_rect" : [ 50.0, 12.0, 25.0, 25.0 ],
					"numinlets" : 0,
					"id" : "obj-6",
					"numoutlets" : 1,
					"outlettype" : [ "" ],
					"comment" : "port #"
				}

			}
, 			{
				"box" : 				{
					"maxclass" : "number",
					"fontsize" : 12.0,
					"patching_rect" : [ 50.0, 52.0, 50.0, 20.0 ],
					"numinlets" : 1,
					"id" : "obj-12",
					"fontname" : "Arial",
					"numoutlets" : 2,
					"outlettype" : [ "int", "bang" ]
				}

			}
, 			{
				"box" : 				{
					"maxclass" : "message",
					"text" : "port $1",
					"fontsize" : 12.0,
					"patching_rect" : [ 50.0, 78.0, 49.0, 18.0 ],
					"numinlets" : 2,
					"id" : "obj-10",
					"fontname" : "Arial",
					"numoutlets" : 1,
					"outlettype" : [ "" ]
				}

			}
, 			{
				"box" : 				{
					"maxclass" : "toggle",
					"patching_rect" : [ 169.0, 147.0, 20.0, 20.0 ],
					"numinlets" : 1,
					"id" : "obj-8",
					"numoutlets" : 1,
					"outlettype" : [ "int" ]
				}

			}
, 			{
				"box" : 				{
					"maxclass" : "newobj",
					"text" : "gate",
					"fontsize" : 12.0,
					"patching_rect" : [ 169.0, 177.0, 35.0, 20.0 ],
					"numinlets" : 2,
					"id" : "obj-4",
					"fontname" : "Arial",
					"numoutlets" : 1,
					"outlettype" : [ "" ]
				}

			}
, 			{
				"box" : 				{
					"maxclass" : "newobj",
					"text" : "print rawOSC",
					"fontsize" : 12.0,
					"patching_rect" : [ 169.0, 202.0, 84.0, 20.0 ],
					"numinlets" : 1,
					"id" : "obj-3",
					"fontname" : "Arial",
					"numoutlets" : 0
				}

			}
, 			{
				"box" : 				{
					"maxclass" : "newobj",
					"text" : "udpreceive 7400",
					"fontsize" : 12.0,
					"patching_rect" : [ 50.0, 101.0, 100.0, 20.0 ],
					"numinlets" : 1,
					"id" : "obj-1",
					"fontname" : "Arial",
					"numoutlets" : 1,
					"outlettype" : [ "" ]
				}

			}
, 			{
				"box" : 				{
					"maxclass" : "outlet",
					"patching_rect" : [ 50.0, 293.0, 25.0, 25.0 ],
					"numinlets" : 1,
					"id" : "obj-13",
					"numoutlets" : 0,
					"comment" : ""
				}

			}
 ],
		"lines" : [ 			{
				"patchline" : 				{
					"source" : [ "obj-29", 4 ],
					"destination" : [ "obj-2", 0 ],
					"hidden" : 0,
					"midpoints" : [  ]
				}

			}
, 			{
				"patchline" : 				{
					"source" : [ "obj-29", 3 ],
					"destination" : [ "obj-5", 0 ],
					"hidden" : 0,
					"midpoints" : [  ]
				}

			}
, 			{
				"patchline" : 				{
					"source" : [ "obj-29", 1 ],
					"destination" : [ "obj-21", 0 ],
					"hidden" : 0,
					"midpoints" : [  ]
				}

			}
, 			{
				"patchline" : 				{
					"source" : [ "obj-29", 2 ],
					"destination" : [ "obj-22", 0 ],
					"hidden" : 0,
					"midpoints" : [  ]
				}

			}
, 			{
				"patchline" : 				{
					"source" : [ "obj-29", 0 ],
					"destination" : [ "obj-13", 0 ],
					"hidden" : 0,
					"midpoints" : [  ]
				}

			}
, 			{
				"patchline" : 				{
					"source" : [ "obj-10", 0 ],
					"destination" : [ "obj-1", 0 ],
					"hidden" : 0,
					"midpoints" : [  ]
				}

			}
, 			{
				"patchline" : 				{
					"source" : [ "obj-12", 0 ],
					"destination" : [ "obj-10", 0 ],
					"hidden" : 0,
					"midpoints" : [  ]
				}

			}
, 			{
				"patchline" : 				{
					"source" : [ "obj-8", 0 ],
					"destination" : [ "obj-4", 0 ],
					"hidden" : 0,
					"midpoints" : [  ]
				}

			}
, 			{
				"patchline" : 				{
					"source" : [ "obj-6", 0 ],
					"destination" : [ "obj-12", 0 ],
					"hidden" : 0,
					"midpoints" : [  ]
				}

			}
, 			{
				"patchline" : 				{
					"source" : [ "obj-9", 0 ],
					"destination" : [ "obj-8", 0 ],
					"hidden" : 0,
					"midpoints" : [  ]
				}

			}
, 			{
				"patchline" : 				{
					"source" : [ "obj-4", 0 ],
					"destination" : [ "obj-3", 0 ],
					"hidden" : 0,
					"midpoints" : [  ]
				}

			}
, 			{
				"patchline" : 				{
					"source" : [ "obj-19", 0 ],
					"destination" : [ "obj-29", 0 ],
					"hidden" : 0,
					"midpoints" : [  ]
				}

			}
, 			{
				"patchline" : 				{
					"source" : [ "obj-32", 0 ],
					"destination" : [ "obj-29", 0 ],
					"hidden" : 0,
					"midpoints" : [  ]
				}

			}
, 			{
				"patchline" : 				{
					"source" : [ "obj-1", 0 ],
					"destination" : [ "obj-29", 0 ],
					"hidden" : 0,
					"midpoints" : [  ]
				}

			}
, 			{
				"patchline" : 				{
					"source" : [ "obj-1", 0 ],
					"destination" : [ "obj-4", 1 ],
					"hidden" : 0,
					"midpoints" : [ 59.5, 172.0, 194.5, 172.0 ]
				}

			}
 ]
	}

}
