{
	"patcher" : 	{
		"fileversion" : 1,
		"rect" : [ 1250.0, 732.0, 665.0, 407.0 ],
		"bglocked" : 0,
		"defrect" : [ 1250.0, 732.0, 665.0, 407.0 ],
		"openrect" : [ 0.0, 0.0, 0.0, 0.0 ],
		"openinpresentation" : 0,
		"default_fontsize" : 12.0,
		"default_fontface" : 0,
		"default_fontname" : "Arial",
		"gridonopen" : 0,
		"gridsize" : [ 15.0, 15.0 ],
		"gridsnaponopen" : 0,
		"toolbarvisible" : 1,
		"boxanimatetime" : 200,
		"imprint" : 0,
		"metadata" : [  ],
		"boxes" : [ 			{
				"box" : 				{
					"maxclass" : "outlet",
					"varname" : "fx_out_6",
					"numinlets" : 1,
					"patching_rect" : [ 524.0, 323.0, 25.0, 25.0 ],
					"numoutlets" : 0,
					"id" : "obj-10",
					"comment" : "fx out 6"
				}

			}
, 			{
				"box" : 				{
					"maxclass" : "outlet",
					"varname" : "fx_out_5",
					"numinlets" : 1,
					"patching_rect" : [ 484.0, 323.0, 25.0, 25.0 ],
					"numoutlets" : 0,
					"id" : "obj-16",
					"comment" : "fx out 5"
				}

			}
, 			{
				"box" : 				{
					"maxclass" : "outlet",
					"varname" : "fx_out_4",
					"numinlets" : 1,
					"patching_rect" : [ 444.0, 323.0, 25.0, 25.0 ],
					"numoutlets" : 0,
					"id" : "obj-17",
					"comment" : "fx out 4"
				}

			}
, 			{
				"box" : 				{
					"maxclass" : "outlet",
					"varname" : "fx_out_3",
					"numinlets" : 1,
					"patching_rect" : [ 403.0, 323.0, 25.0, 25.0 ],
					"numoutlets" : 0,
					"id" : "obj-18",
					"comment" : "fx out 3"
				}

			}
, 			{
				"box" : 				{
					"maxclass" : "outlet",
					"varname" : "fx_out_2",
					"numinlets" : 1,
					"patching_rect" : [ 363.0, 323.0, 25.0, 25.0 ],
					"numoutlets" : 0,
					"id" : "obj-1",
					"comment" : "fx out 2"
				}

			}
, 			{
				"box" : 				{
					"maxclass" : "outlet",
					"varname" : "fx_out_1",
					"numinlets" : 1,
					"patching_rect" : [ 323.0, 323.0, 25.0, 25.0 ],
					"numoutlets" : 0,
					"id" : "obj-20",
					"comment" : "fx out 1"
				}

			}
, 			{
				"box" : 				{
					"maxclass" : "outlet",
					"varname" : "music_out_6",
					"numinlets" : 1,
					"patching_rect" : [ 288.0, 323.0, 25.0, 25.0 ],
					"numoutlets" : 0,
					"id" : "obj-14",
					"comment" : "music out 6"
				}

			}
, 			{
				"box" : 				{
					"maxclass" : "outlet",
					"varname" : "music_out_5",
					"numinlets" : 1,
					"patching_rect" : [ 254.0, 323.0, 25.0, 25.0 ],
					"numoutlets" : 0,
					"id" : "obj-15",
					"comment" : "music out 5"
				}

			}
, 			{
				"box" : 				{
					"maxclass" : "outlet",
					"varname" : "music_out_4",
					"numinlets" : 1,
					"patching_rect" : [ 221.0, 323.0, 25.0, 25.0 ],
					"numoutlets" : 0,
					"id" : "obj-12",
					"comment" : "music out 4"
				}

			}
, 			{
				"box" : 				{
					"maxclass" : "outlet",
					"varname" : "music_out_3",
					"numinlets" : 1,
					"patching_rect" : [ 187.0, 323.0, 25.0, 25.0 ],
					"numoutlets" : 0,
					"id" : "obj-13",
					"comment" : "music out 3"
				}

			}
, 			{
				"box" : 				{
					"maxclass" : "outlet",
					"varname" : "music_out_2",
					"numinlets" : 1,
					"patching_rect" : [ 153.0, 323.0, 25.0, 25.0 ],
					"numoutlets" : 0,
					"id" : "obj-11",
					"comment" : "music out 2"
				}

			}
, 			{
				"box" : 				{
					"maxclass" : "outlet",
					"varname" : "music_out_1",
					"numinlets" : 1,
					"patching_rect" : [ 119.0, 323.0, 25.0, 25.0 ],
					"numoutlets" : 0,
					"id" : "obj-7",
					"comment" : "music out 1"
				}

			}
, 			{
				"box" : 				{
					"maxclass" : "message",
					"text" : "resetMe",
					"fontname" : "Arial",
					"numinlets" : 2,
					"patching_rect" : [ 552.0, 17.0, 54.0, 18.0 ],
					"fontsize" : 12.0,
					"numoutlets" : 1,
					"id" : "obj-6",
					"outlettype" : [ "" ]
				}

			}
, 			{
				"box" : 				{
					"maxclass" : "newobj",
					"text" : "r printDebug",
					"fontname" : "Arial",
					"numinlets" : 0,
					"patching_rect" : [ 39.0, 20.0, 78.0, 20.0 ],
					"fontsize" : 12.0,
					"numoutlets" : 1,
					"id" : "obj-9",
					"outlettype" : [ "" ]
				}

			}
, 			{
				"box" : 				{
					"maxclass" : "toggle",
					"numinlets" : 1,
					"patching_rect" : [ 39.0, 49.0, 20.0, 20.0 ],
					"numoutlets" : 1,
					"id" : "obj-8",
					"outlettype" : [ "int" ]
				}

			}
, 			{
				"box" : 				{
					"maxclass" : "newobj",
					"text" : "gate",
					"fontname" : "Arial",
					"numinlets" : 2,
					"patching_rect" : [ 39.0, 79.0, 35.0, 20.0 ],
					"fontsize" : 12.0,
					"numoutlets" : 1,
					"id" : "obj-4",
					"outlettype" : [ "" ]
				}

			}
, 			{
				"box" : 				{
					"maxclass" : "newobj",
					"text" : "print otherAvatars",
					"fontname" : "Arial",
					"numinlets" : 1,
					"patching_rect" : [ 39.0, 104.0, 105.0, 20.0 ],
					"fontsize" : 12.0,
					"numoutlets" : 0,
					"id" : "obj-3"
				}

			}
, 			{
				"box" : 				{
					"maxclass" : "message",
					"text" : "compile",
					"fontname" : "Arial",
					"numinlets" : 2,
					"patching_rect" : [ 487.0, 20.0, 54.0, 18.0 ],
					"fontsize" : 12.0,
					"numoutlets" : 1,
					"id" : "obj-19",
					"outlettype" : [ "" ]
				}

			}
, 			{
				"box" : 				{
					"maxclass" : "message",
					"text" : "open",
					"fontname" : "Arial",
					"numinlets" : 2,
					"patching_rect" : [ 460.0, 0.0, 39.0, 18.0 ],
					"fontsize" : 12.0,
					"numoutlets" : 1,
					"id" : "obj-32",
					"outlettype" : [ "" ]
				}

			}
, 			{
				"box" : 				{
					"maxclass" : "newobj",
					"varname" : "js_otherAvatars",
					"text" : "js otherAvatars.js",
					"fontname" : "Arial",
					"numinlets" : 1,
					"patching_rect" : [ 444.0, 60.0, 103.0, 20.0 ],
					"fontsize" : 12.0,
					"numoutlets" : 2,
					"id" : "obj-29",
					"outlettype" : [ "", "" ]
				}

			}
, 			{
				"box" : 				{
					"maxclass" : "inlet",
					"numinlets" : 0,
					"patching_rect" : [ 335.0, 20.0, 25.0, 25.0 ],
					"numoutlets" : 1,
					"id" : "obj-2",
					"outlettype" : [ "" ],
					"comment" : ""
				}

			}
 ],
		"lines" : [ 			{
				"patchline" : 				{
					"source" : [ "obj-6", 0 ],
					"destination" : [ "obj-29", 0 ],
					"hidden" : 0,
					"midpoints" : [  ]
				}

			}
, 			{
				"patchline" : 				{
					"source" : [ "obj-2", 0 ],
					"destination" : [ "obj-29", 0 ],
					"hidden" : 0,
					"midpoints" : [  ]
				}

			}
, 			{
				"patchline" : 				{
					"source" : [ "obj-4", 0 ],
					"destination" : [ "obj-3", 0 ],
					"hidden" : 0,
					"midpoints" : [  ]
				}

			}
, 			{
				"patchline" : 				{
					"source" : [ "obj-9", 0 ],
					"destination" : [ "obj-8", 0 ],
					"hidden" : 0,
					"midpoints" : [  ]
				}

			}
, 			{
				"patchline" : 				{
					"source" : [ "obj-8", 0 ],
					"destination" : [ "obj-4", 0 ],
					"hidden" : 0,
					"midpoints" : [  ]
				}

			}
, 			{
				"patchline" : 				{
					"source" : [ "obj-2", 0 ],
					"destination" : [ "obj-4", 1 ],
					"hidden" : 0,
					"midpoints" : [ 344.5, 74.0, 64.5, 74.0 ]
				}

			}
, 			{
				"patchline" : 				{
					"source" : [ "obj-19", 0 ],
					"destination" : [ "obj-29", 0 ],
					"hidden" : 0,
					"midpoints" : [  ]
				}

			}
, 			{
				"patchline" : 				{
					"source" : [ "obj-32", 0 ],
					"destination" : [ "obj-29", 0 ],
					"hidden" : 0,
					"midpoints" : [  ]
				}

			}
 ]
	}

}
