{
	"patcher" : 	{
		"fileversion" : 1,
		"rect" : [ 621.0, 364.0, 549.0, 544.0 ],
		"bglocked" : 0,
		"defrect" : [ 621.0, 364.0, 549.0, 544.0 ],
		"openrect" : [ 0.0, 0.0, 0.0, 0.0 ],
		"openinpresentation" : 0,
		"default_fontsize" : 12.0,
		"default_fontface" : 0,
		"default_fontname" : "Arial",
		"gridonopen" : 0,
		"gridsize" : [ 15.0, 15.0 ],
		"gridsnaponopen" : 0,
		"toolbarvisible" : 1,
		"boxanimatetime" : 200,
		"imprint" : 0,
		"metadata" : [  ],
		"boxes" : [ 			{
				"box" : 				{
					"maxclass" : "newobj",
					"text" : "t b b i",
					"fontsize" : 9.0,
					"patching_rect" : [ 129.0, 108.0, 46.0, 17.0 ],
					"numinlets" : 1,
					"id" : "obj-63",
					"fontname" : "Arial",
					"numoutlets" : 3,
					"outlettype" : [ "bang", "bang", "int" ]
				}

			}
, 			{
				"box" : 				{
					"maxclass" : "message",
					"text" : "franklinsTower:/Users/toneguy/Documents/skoolStuff/MUS404GG/justmybranch/resources/max_msp/working/pats/pat00000.jxf",
					"linecount" : 3,
					"fontsize" : 9.0,
					"patching_rect" : [ 15.0, 187.0, 185.0, 36.0 ],
					"numinlets" : 2,
					"id" : "obj-3",
					"fontname" : "Arial",
					"numoutlets" : 1,
					"outlettype" : [ "" ]
				}

			}
, 			{
				"box" : 				{
					"maxclass" : "message",
					"text" : "set $1",
					"fontsize" : 9.0,
					"patching_rect" : [ 15.0, 164.0, 35.0, 15.0 ],
					"numinlets" : 2,
					"id" : "obj-58",
					"fontname" : "Arial",
					"numoutlets" : 1,
					"outlettype" : [ "" ]
				}

			}
, 			{
				"box" : 				{
					"maxclass" : "newobj",
					"text" : "sprintf symout %spats/pat%.5d.jxf",
					"fontsize" : 9.0,
					"patching_rect" : [ 16.0, 141.0, 146.0, 17.0 ],
					"numinlets" : 2,
					"id" : "obj-81",
					"fontname" : "Arial",
					"numoutlets" : 1,
					"outlettype" : [ "" ]
				}

			}
, 			{
				"box" : 				{
					"maxclass" : "newobj",
					"text" : "loadbang",
					"fontsize" : 9.0,
					"patching_rect" : [ 59.0, 7.0, 48.0, 17.0 ],
					"numinlets" : 1,
					"id" : "obj-39",
					"fontname" : "Arial",
					"numoutlets" : 1,
					"outlettype" : [ "bang" ]
				}

			}
, 			{
				"box" : 				{
					"maxclass" : "message",
					"text" : "path",
					"fontsize" : 9.0,
					"patching_rect" : [ 59.0, 32.0, 28.0, 15.0 ],
					"numinlets" : 2,
					"id" : "obj-54",
					"fontname" : "Arial",
					"numoutlets" : 1,
					"outlettype" : [ "" ]
				}

			}
, 			{
				"box" : 				{
					"maxclass" : "newobj",
					"text" : "thispatcher",
					"fontsize" : 9.0,
					"patching_rect" : [ 59.0, 54.0, 55.0, 17.0 ],
					"numinlets" : 1,
					"id" : "obj-26",
					"fontname" : "Arial",
					"numoutlets" : 2,
					"outlettype" : [ "", "" ],
					"save" : [ "#N", "thispatcher", ";", "#Q", "end", ";" ]
				}

			}
, 			{
				"box" : 				{
					"maxclass" : "comment",
					"text" : "control info",
					"fontsize" : 12.0,
					"patching_rect" : [ 287.0, 49.0, 69.0, 20.0 ],
					"numinlets" : 1,
					"id" : "obj-99",
					"fontname" : "Arial",
					"numoutlets" : 0
				}

			}
, 			{
				"box" : 				{
					"maxclass" : "newobj",
					"text" : "sel 0",
					"fontsize" : 12.0,
					"patching_rect" : [ 70.0, 282.0, 36.0, 20.0 ],
					"numinlets" : 2,
					"id" : "obj-98",
					"fontname" : "Arial",
					"numoutlets" : 2,
					"outlettype" : [ "bang", "" ]
				}

			}
, 			{
				"box" : 				{
					"maxclass" : "button",
					"patching_rect" : [ 46.0, 282.0, 20.0, 20.0 ],
					"numinlets" : 1,
					"id" : "obj-96",
					"numoutlets" : 1,
					"outlettype" : [ "bang" ]
				}

			}
, 			{
				"box" : 				{
					"maxclass" : "number",
					"fontsize" : 12.0,
					"patching_rect" : [ 70.0, 259.0, 50.0, 20.0 ],
					"numinlets" : 1,
					"id" : "obj-94",
					"fontname" : "Arial",
					"numoutlets" : 2,
					"outlettype" : [ "int", "bang" ]
				}

			}
, 			{
				"box" : 				{
					"maxclass" : "newobj",
					"text" : "r boomClock",
					"fontsize" : 12.0,
					"patching_rect" : [ 46.0, 233.0, 78.0, 20.0 ],
					"numinlets" : 0,
					"id" : "obj-86",
					"fontname" : "Arial",
					"numoutlets" : 1,
					"outlettype" : [ "" ]
				}

			}
, 			{
				"box" : 				{
					"maxclass" : "number",
					"fontsize" : 12.0,
					"patching_rect" : [ 129.0, 80.0, 50.0, 20.0 ],
					"numinlets" : 1,
					"id" : "obj-79",
					"fontname" : "Arial",
					"numoutlets" : 2,
					"outlettype" : [ "int", "bang" ]
				}

			}
, 			{
				"box" : 				{
					"maxclass" : "message",
					"text" : "read $1",
					"fontsize" : 12.0,
					"patching_rect" : [ 129.0, 283.0, 51.0, 18.0 ],
					"numinlets" : 2,
					"id" : "obj-72",
					"fontname" : "Arial",
					"numoutlets" : 1,
					"outlettype" : [ "" ]
				}

			}
, 			{
				"box" : 				{
					"maxclass" : "inlet",
					"patching_rect" : [ 257.0, 48.0, 25.0, 25.0 ],
					"numinlets" : 0,
					"id" : "obj-69",
					"numoutlets" : 1,
					"outlettype" : [ "" ],
					"comment" : "control info"
				}

			}
, 			{
				"box" : 				{
					"maxclass" : "newobj",
					"text" : "listfunnel",
					"fontsize" : 12.0,
					"patching_rect" : [ 128.0, 465.0, 58.0, 20.0 ],
					"numinlets" : 1,
					"id" : "obj-68",
					"fontname" : "Arial",
					"numoutlets" : 1,
					"outlettype" : [ "list" ]
				}

			}
, 			{
				"box" : 				{
					"maxclass" : "newobj",
					"text" : "testPatternEditor",
					"fontsize" : 12.0,
					"patching_rect" : [ 252.0, 283.0, 100.0, 20.0 ],
					"numinlets" : 2,
					"id" : "obj-62",
					"fontname" : "Arial",
					"numoutlets" : 1,
					"outlettype" : [ "" ]
				}

			}
, 			{
				"box" : 				{
					"maxclass" : "message",
					"text" : "set 0",
					"fontsize" : 12.0,
					"patching_rect" : [ 194.0, 344.0, 37.0, 18.0 ],
					"numinlets" : 2,
					"id" : "obj-52",
					"fontname" : "Arial",
					"numoutlets" : 1,
					"outlettype" : [ "" ]
				}

			}
, 			{
				"box" : 				{
					"maxclass" : "number",
					"fontsize" : 11.595187,
					"patching_rect" : [ 241.0, 393.0, 50.0, 20.0 ],
					"triscale" : 0.9,
					"numinlets" : 1,
					"id" : "obj-28",
					"fontname" : "Arial",
					"numoutlets" : 2,
					"outlettype" : [ "int", "bang" ]
				}

			}
, 			{
				"box" : 				{
					"maxclass" : "newobj",
					"text" : "pak offset 0 0",
					"fontsize" : 11.595187,
					"patching_rect" : [ 145.0, 416.0, 115.0, 20.0 ],
					"numinlets" : 3,
					"id" : "obj-19",
					"fontname" : "Arial",
					"numoutlets" : 1,
					"outlettype" : [ "" ]
				}

			}
, 			{
				"box" : 				{
					"maxclass" : "button",
					"patching_rect" : [ 241.0, 342.0, 20.0, 20.0 ],
					"numinlets" : 1,
					"id" : "obj-27",
					"numoutlets" : 1,
					"outlettype" : [ "bang" ]
				}

			}
, 			{
				"box" : 				{
					"maxclass" : "newobj",
					"text" : "counter 0 0 31",
					"fontsize" : 12.0,
					"patching_rect" : [ 241.0, 369.0, 87.0, 20.0 ],
					"numinlets" : 5,
					"id" : "obj-25",
					"fontname" : "Arial",
					"numoutlets" : 4,
					"outlettype" : [ "int", "", "", "int" ]
				}

			}
, 			{
				"box" : 				{
					"maxclass" : "newobj",
					"text" : "jit.spill @listlength 32",
					"fontsize" : 12.0,
					"patching_rect" : [ 128.0, 440.0, 123.0, 20.0 ],
					"numinlets" : 1,
					"id" : "obj-23",
					"fontname" : "Arial",
					"numoutlets" : 2,
					"outlettype" : [ "", "" ]
				}

			}
, 			{
				"box" : 				{
					"maxclass" : "newobj",
					"varname" : "pattern_player_matrix",
					"text" : "jit.matrix test 1 float32 @dim 32 32",
					"fontsize" : 12.0,
					"patching_rect" : [ 129.0, 310.0, 195.0, 20.0 ],
					"numinlets" : 1,
					"id" : "obj-6",
					"fontname" : "Arial",
					"numoutlets" : 2,
					"outlettype" : [ "jit_matrix", "" ]
				}

			}
, 			{
				"box" : 				{
					"maxclass" : "newobj",
					"text" : "r printDebug",
					"fontsize" : 12.0,
					"patching_rect" : [ 364.0, 26.0, 78.0, 20.0 ],
					"numinlets" : 0,
					"id" : "obj-9",
					"fontname" : "Arial",
					"numoutlets" : 1,
					"outlettype" : [ "" ]
				}

			}
, 			{
				"box" : 				{
					"maxclass" : "toggle",
					"patching_rect" : [ 364.0, 50.0, 20.0, 20.0 ],
					"numinlets" : 1,
					"id" : "obj-8",
					"numoutlets" : 1,
					"outlettype" : [ "int" ]
				}

			}
, 			{
				"box" : 				{
					"maxclass" : "newobj",
					"varname" : "patternPlayer_print_msgIn_gate",
					"text" : "gate",
					"fontsize" : 12.0,
					"patching_rect" : [ 364.0, 79.0, 35.0, 20.0 ],
					"numinlets" : 2,
					"id" : "obj-4",
					"fontname" : "Arial",
					"numoutlets" : 1,
					"outlettype" : [ "" ]
				}

			}
, 			{
				"box" : 				{
					"maxclass" : "comment",
					"text" : "note, amp",
					"fontsize" : 12.0,
					"patching_rect" : [ 193.0, 465.0, 64.0, 20.0 ],
					"numinlets" : 1,
					"id" : "obj-5",
					"fontname" : "Arial",
					"numoutlets" : 0
				}

			}
, 			{
				"box" : 				{
					"maxclass" : "comment",
					"text" : "pattern number",
					"fontsize" : 12.0,
					"patching_rect" : [ 160.0, 49.0, 92.0, 20.0 ],
					"numinlets" : 1,
					"id" : "obj-59",
					"fontname" : "Arial",
					"numoutlets" : 0
				}

			}
, 			{
				"box" : 				{
					"maxclass" : "outlet",
					"patching_rect" : [ 128.0, 493.0, 25.0, 25.0 ],
					"numinlets" : 1,
					"id" : "obj-2",
					"numoutlets" : 0,
					"comment" : ""
				}

			}
, 			{
				"box" : 				{
					"maxclass" : "inlet",
					"patching_rect" : [ 129.0, 48.0, 25.0, 25.0 ],
					"numinlets" : 0,
					"id" : "obj-1",
					"numoutlets" : 1,
					"outlettype" : [ "" ],
					"comment" : "(int) pattern number to play"
				}

			}
 ],
		"lines" : [ 			{
				"patchline" : 				{
					"source" : [ "obj-3", 0 ],
					"destination" : [ "obj-72", 0 ],
					"hidden" : 0,
					"midpoints" : [ 24.5, 227.0, 138.5, 227.0 ]
				}

			}
, 			{
				"patchline" : 				{
					"source" : [ "obj-58", 0 ],
					"destination" : [ "obj-3", 0 ],
					"hidden" : 0,
					"midpoints" : [  ]
				}

			}
, 			{
				"patchline" : 				{
					"source" : [ "obj-39", 0 ],
					"destination" : [ "obj-54", 0 ],
					"hidden" : 0,
					"midpoints" : [  ]
				}

			}
, 			{
				"patchline" : 				{
					"source" : [ "obj-54", 0 ],
					"destination" : [ "obj-26", 0 ],
					"hidden" : 0,
					"midpoints" : [  ]
				}

			}
, 			{
				"patchline" : 				{
					"source" : [ "obj-79", 0 ],
					"destination" : [ "obj-62", 0 ],
					"hidden" : 0,
					"midpoints" : [ 138.5, 103.0, 261.5, 103.0 ]
				}

			}
, 			{
				"patchline" : 				{
					"source" : [ "obj-62", 0 ],
					"destination" : [ "obj-6", 0 ],
					"hidden" : 0,
					"midpoints" : [ 261.5, 305.0, 138.5, 305.0 ]
				}

			}
, 			{
				"patchline" : 				{
					"source" : [ "obj-1", 0 ],
					"destination" : [ "obj-4", 1 ],
					"hidden" : 0,
					"midpoints" : [ 138.5, 76.0, 389.5, 76.0 ]
				}

			}
, 			{
				"patchline" : 				{
					"source" : [ "obj-8", 0 ],
					"destination" : [ "obj-4", 0 ],
					"hidden" : 0,
					"midpoints" : [  ]
				}

			}
, 			{
				"patchline" : 				{
					"source" : [ "obj-9", 0 ],
					"destination" : [ "obj-8", 0 ],
					"hidden" : 0,
					"midpoints" : [  ]
				}

			}
, 			{
				"patchline" : 				{
					"source" : [ "obj-6", 0 ],
					"destination" : [ "obj-27", 0 ],
					"hidden" : 0,
					"midpoints" : [ 138.5, 333.0, 250.5, 333.0 ]
				}

			}
, 			{
				"patchline" : 				{
					"source" : [ "obj-6", 0 ],
					"destination" : [ "obj-23", 0 ],
					"hidden" : 0,
					"midpoints" : [  ]
				}

			}
, 			{
				"patchline" : 				{
					"source" : [ "obj-25", 0 ],
					"destination" : [ "obj-28", 0 ],
					"hidden" : 0,
					"midpoints" : [  ]
				}

			}
, 			{
				"patchline" : 				{
					"source" : [ "obj-27", 0 ],
					"destination" : [ "obj-25", 0 ],
					"hidden" : 0,
					"midpoints" : [  ]
				}

			}
, 			{
				"patchline" : 				{
					"source" : [ "obj-52", 0 ],
					"destination" : [ "obj-25", 0 ],
					"hidden" : 0,
					"midpoints" : [ 203.5, 365.0, 250.5, 365.0 ]
				}

			}
, 			{
				"patchline" : 				{
					"source" : [ "obj-28", 0 ],
					"destination" : [ "obj-19", 2 ],
					"hidden" : 0,
					"midpoints" : [  ]
				}

			}
, 			{
				"patchline" : 				{
					"source" : [ "obj-19", 0 ],
					"destination" : [ "obj-23", 0 ],
					"hidden" : 0,
					"midpoints" : [  ]
				}

			}
, 			{
				"patchline" : 				{
					"source" : [ "obj-23", 0 ],
					"destination" : [ "obj-68", 0 ],
					"hidden" : 0,
					"midpoints" : [  ]
				}

			}
, 			{
				"patchline" : 				{
					"source" : [ "obj-1", 0 ],
					"destination" : [ "obj-79", 0 ],
					"hidden" : 0,
					"midpoints" : [  ]
				}

			}
, 			{
				"patchline" : 				{
					"source" : [ "obj-72", 0 ],
					"destination" : [ "obj-6", 0 ],
					"hidden" : 0,
					"midpoints" : [  ]
				}

			}
, 			{
				"patchline" : 				{
					"source" : [ "obj-68", 0 ],
					"destination" : [ "obj-2", 0 ],
					"hidden" : 0,
					"midpoints" : [  ]
				}

			}
, 			{
				"patchline" : 				{
					"source" : [ "obj-96", 0 ],
					"destination" : [ "obj-6", 0 ],
					"hidden" : 0,
					"midpoints" : [ 55.5, 305.0, 138.5, 305.0 ]
				}

			}
, 			{
				"patchline" : 				{
					"source" : [ "obj-86", 0 ],
					"destination" : [ "obj-94", 0 ],
					"hidden" : 0,
					"midpoints" : [  ]
				}

			}
, 			{
				"patchline" : 				{
					"source" : [ "obj-86", 0 ],
					"destination" : [ "obj-96", 0 ],
					"hidden" : 0,
					"midpoints" : [  ]
				}

			}
, 			{
				"patchline" : 				{
					"source" : [ "obj-94", 0 ],
					"destination" : [ "obj-98", 0 ],
					"hidden" : 0,
					"midpoints" : [  ]
				}

			}
, 			{
				"patchline" : 				{
					"source" : [ "obj-98", 0 ],
					"destination" : [ "obj-52", 0 ],
					"hidden" : 0,
					"midpoints" : [ 79.5, 338.0, 203.5, 338.0 ]
				}

			}
, 			{
				"patchline" : 				{
					"source" : [ "obj-68", 0 ],
					"destination" : [ "obj-62", 1 ],
					"hidden" : 0,
					"midpoints" : [ 137.5, 487.0, 357.0, 487.0, 357.0, 280.0, 342.5, 280.0 ]
				}

			}
, 			{
				"patchline" : 				{
					"source" : [ "obj-81", 0 ],
					"destination" : [ "obj-58", 0 ],
					"hidden" : 0,
					"midpoints" : [  ]
				}

			}
, 			{
				"patchline" : 				{
					"source" : [ "obj-26", 1 ],
					"destination" : [ "obj-81", 0 ],
					"hidden" : 0,
					"midpoints" : [ 104.5, 128.0, 25.5, 128.0 ]
				}

			}
, 			{
				"patchline" : 				{
					"source" : [ "obj-79", 0 ],
					"destination" : [ "obj-63", 0 ],
					"hidden" : 0,
					"midpoints" : [  ]
				}

			}
, 			{
				"patchline" : 				{
					"source" : [ "obj-63", 2 ],
					"destination" : [ "obj-81", 1 ],
					"hidden" : 0,
					"midpoints" : [ 165.5, 136.0, 153.0, 136.0, 153.0, 138.0, 152.5, 138.0 ]
				}

			}
, 			{
				"patchline" : 				{
					"source" : [ "obj-63", 0 ],
					"destination" : [ "obj-3", 0 ],
					"hidden" : 0,
					"midpoints" : [ 138.5, 129.0, 10.0, 129.0, 10.0, 183.0, 24.5, 183.0 ]
				}

			}
, 			{
				"patchline" : 				{
					"source" : [ "obj-63", 1 ],
					"destination" : [ "obj-81", 0 ],
					"hidden" : 0,
					"midpoints" : [ 152.0, 136.0, 25.5, 136.0 ]
				}

			}
 ]
	}

}
