{
	"patcher" : 	{
		"fileversion" : 1,
		"rect" : [ 25.0, 69.0, 640.0, 506.0 ],
		"bglocked" : 0,
		"defrect" : [ 25.0, 69.0, 640.0, 506.0 ],
		"openrect" : [ 0.0, 0.0, 0.0, 0.0 ],
		"openinpresentation" : 0,
		"default_fontsize" : 12.0,
		"default_fontface" : 0,
		"default_fontname" : "Arial",
		"gridonopen" : 0,
		"gridsize" : [ 15.0, 15.0 ],
		"gridsnaponopen" : 0,
		"toolbarvisible" : 1,
		"boxanimatetime" : 200,
		"imprint" : 0,
		"metadata" : [  ],
		"boxes" : [ 			{
				"box" : 				{
					"maxclass" : "toggle",
					"outlettype" : [ "int" ],
					"patching_rect" : [ 476.0, 380.0, 20.0, 20.0 ],
					"numinlets" : 1,
					"id" : "obj-8",
					"numoutlets" : 1
				}

			}
, 			{
				"box" : 				{
					"maxclass" : "newobj",
					"text" : "gate",
					"outlettype" : [ "" ],
					"patching_rect" : [ 476.0, 410.0, 35.0, 20.0 ],
					"fontname" : "Arial",
					"numinlets" : 2,
					"id" : "obj-4",
					"numoutlets" : 1,
					"fontsize" : 12.0
				}

			}
, 			{
				"box" : 				{
					"maxclass" : "newobj",
					"text" : "print rawOSCsent",
					"patching_rect" : [ 476.0, 435.0, 105.0, 20.0 ],
					"fontname" : "Arial",
					"numinlets" : 1,
					"id" : "obj-3",
					"numoutlets" : 0,
					"fontsize" : 12.0
				}

			}
, 			{
				"box" : 				{
					"maxclass" : "newobj",
					"text" : "udpreceive 7500",
					"outlettype" : [ "" ],
					"patching_rect" : [ 396.0, 317.0, 99.0, 20.0 ],
					"fontname" : "Arial",
					"numinlets" : 1,
					"id" : "obj-1",
					"numoutlets" : 1,
					"fontsize" : 12.0
				}

			}
 ],
		"lines" : [ 			{
				"patchline" : 				{
					"source" : [ "obj-4", 0 ],
					"destination" : [ "obj-3", 0 ],
					"hidden" : 0,
					"midpoints" : [  ]
				}

			}
, 			{
				"patchline" : 				{
					"source" : [ "obj-1", 0 ],
					"destination" : [ "obj-4", 1 ],
					"hidden" : 0,
					"midpoints" : [ 405.5, 360.0, 462.0, 360.0, 462.0, 405.0, 501.5, 405.0 ]
				}

			}
, 			{
				"patchline" : 				{
					"source" : [ "obj-8", 0 ],
					"destination" : [ "obj-4", 0 ],
					"hidden" : 0,
					"midpoints" : [  ]
				}

			}
 ]
	}

}
